<?xml version="1.0" encoding="UTF-8"?>
<svg version="1.2" viewBox="0 0 1000 1000" xmlns="http://www.w3.org/2000/svg">
 <g transform="matrix(10.748 0 0 10.748 -100.29 -189.25)">
  <path d="m57.566 44.32c-13.531 10.469-32.173 38.048-32.173 38.048l12.178 12.192s27.658-18.553 38.145-32.07 11.722-29.908 11.722-29.908-16.34 1.2704-29.872 11.739z" fill="#e0e0f9"/>
  <path d="m57.566 44.32c-6.7652 5.2346-14.809 14.746-21.16 22.95-6.3519 8.2036-11.013 15.098-11.013 15.098s15.505-23.225 31.016-35.672 31.03-14.115 31.03-14.115-4.0849 0.31728-9.862 1.9439c-5.7764 1.6259-13.244 4.5605-20.01 9.7951z" fill="#f0efff"/>
  <path d="m66.172 53.813c-3.1454-3.1487-8.2458-3.139-11.394 7e-3 -3.1487 3.1454-3.1513 8.2328-7e-3 11.381 3.1454 3.1487 8.2458 3.1643 11.394 0.0188 3.1487-3.1454 3.152-8.2581 7e-3 -11.407zm-0.95575 0.9544c2.6212 2.6238 2.6193 6.8761-7e-3 9.4973-2.6238 2.6212-6.8755 2.6186-9.4974-5e-3 -2.6212-2.6244-2.6186-6.8761 7e-3 -9.4973 2.6245-2.6212 6.8761-2.6193 9.4974 5e-3z" fill="#e8e8e8"/>
  <path d="m66.976 53.008c-3.5899-3.5938-9.4097-3.5821-13.003 7e-3 -3.5938 3.5899-3.5964 9.3961-7e-3 12.989 3.5899 3.5938 9.4104 3.6113 13.004 0.0214 3.5938-3.5892 3.5971-9.424 7e-3 -13.018zm-1.0899 1.0894c2.9916 2.9943 2.989 7.8468-7e-3 10.838-2.9949 2.9917-7.8474 2.9891-10.839-6e-3 -2.9911-2.9949-2.9884-7.8474 7e-3 -10.838 2.9949-2.9917 7.8474-2.9891 10.839 6e-3z" fill="#f1f1f1" stroke="#fff" stroke-linecap="round" stroke-width=".12976"/>
  <rect transform="matrix(.70711 .70711 -.70711 .70711 0 0)" x="84.516" y="-50.962" width=".69455" height="16.227" fill="#9795c2"/>
  <path d="m96.043 23.972 0.24553 0.24556-11.474 11.474-0.2456-0.24557z" fill="#5d579d"/>
  <path d="m97.003 24.932a1.3575 1.3575 0 0 1 -1.9198 -1.9198 1.3575 1.3575 0 1 1 1.9198 1.9198z" fill="#716ea0"/>
  <path d="m97 23.014c-0.5302-0.53014-1.3738-0.53015-1.9039 0-0.5302 0.53015-0.54167 1.3853-0.0116 1.9154l1.9154-1.9154z" fill="#967fe1"/>
  <path d="m87.43 32.577-21.761 21.737c7e-3 4e-3 9e-3 0.01 0.0145 0.0142 2.8678 2.8704 2.8651 7.5126-7e-3 10.38-2.871 2.8678-7.5269 2.8794-10.395 9e-3 -7e-3 -5e-3 -9e-3 -0.01-0.0145-0.0143l-23.798 23.772 6.1047 6.082s27.652-18.563 38.139-32.08 11.716-29.9 11.716-29.9zm-32.161 32.126 10.4-10.389c-2.8684-2.8561-7.514-2.8684-10.38-6e-3 -2.8658 2.8626-2.873 7.523-0.0203 10.395z" fill-opacity=".24893"/>
  <path d="m28.228 78.059-4.0623 1.3586-4.0615 1.3593-0.16405 1.8965-0.16376 1.8958 7.7995 7.8085 7.8001 7.8078 1.8965-0.16156 1.8965-0.16156 1.3632-4.0609 1.3631-4.0603-6.8333-6.8411-6.8339-6.8411z" fill="#68464a"/>
  <path d="m88.099 31.92c-5.8e-4 1.3009-0.32635 2.9268-0.65205 4.227-0.32636 1.3002-0.65205 2.276-0.65205 2.276s-1.417-1.1841-2.7172-2.4856c-1.2996-1.3015-2.4824-2.7198-2.4824-2.7198s0.97579-0.32506 2.2766-0.64946c1.3009-0.32441 2.9269-0.64882 4.227-0.64817z" fill="#514e6a"/>
  <path d="m88.057 31.924-0.0545 4e-3 -3.9721 3.961 0.0472 0.0493 0.0334 0.0318 3.985-3.9831-0.0392-0.063z" fill-opacity=".66953"/>
  <path d="m85.172 34.056c0.0566-0.0564 0.14793-0.0564 0.2037 0 0.0566 0.0564 0.0566 0.14793 0 0.20372-0.0566 0.0564-0.14793 0.0564-0.2037 0-0.0566-0.0564-0.0566-0.14792 0-0.20372z" fill-opacity=".66953"/>
  <path d="m86.141 34.278c0.0566-0.0564 0.14793-0.0558 0.20435 0 0.0566 0.0564 0.0566 0.14793 0 0.20438-0.0566 0.0564-0.14792 0.0564-0.20435 0-0.0566-0.0564-0.0566-0.14793 0-0.20438z" fill-opacity=".66953"/>
  <path d="m87.068 33.21c0.0566-0.0564 0.14792-0.0564 0.20442 0 0.0566 0.0564 0.0566 0.14793 0 0.20437-0.0566 0.0564-0.14792 0.0564-0.20442 0-0.0567-0.0564-0.0567-0.14793 0-0.20437z" fill-opacity=".66953"/>
  <path d="m86.039 33.19c0.0566-0.0564 0.14792-0.0564 0.20442 0 0.0566 0.0564 0.0566 0.14793 0 0.20438-0.0566 0.0564-0.14792 0.0564-0.20442 0-0.0567-0.0564-0.0567-0.14793 0-0.20438z" fill-opacity=".66953"/>
  <path d="m84.494 35.798c0.0566-0.0564 0.14793-0.0564 0.20435 0 0.0566 0.0564 0.0566 0.14793 0 0.20438-0.0566 0.0564-0.14792 0.0564-0.20435 0-0.0566-0.0564-0.0566-0.14793 0-0.20438z" fill-opacity=".66953"/>
  <path d="m84.415 34.989c0.0566-0.0564 0.14792-0.0564 0.20435 0 0.0566 0.0564 0.0566 0.14793 0 0.20438-0.0566 0.0558-0.14793 0.0558-0.20435-5.8e-4 -0.0567-0.0564-0.0567-0.14728 0-0.20373z" fill-opacity=".66953"/>
  <path d="m85.255 35.022c0.0566-0.0564 0.14792-0.0564 0.20435 0 0.0559 0.0564 0.0559 0.14792-5.8e-4 0.20437-0.0566 0.0564-0.14728 0.0564-0.2037 0-0.0566-0.0564-0.0566-0.14793 0-0.20437z" fill-opacity=".66953"/>
  <path d="m87.791 32.376c0.0516-0.0513 0.13435-0.0513 0.18562 0 0.0516 0.0513 0.0516 0.13431 0 0.18491-0.0516 0.0513-0.13435 0.0513-0.18562 0-0.0516-0.0513-0.0516-0.1343 0-0.18491z" fill-opacity=".66953"/>
  <path d="m87.087 32.275c0.0566-0.0558 0.14734-0.0558 0.20377 5.8e-4 0.0566 0.0564 0.0566 0.14728 0 0.20373-0.0566 0.0564-0.14793 0.0564-0.20435 0-0.0559-0.0564-0.0559-0.14792 5.8e-4 -0.20437z" fill-opacity=".66953"/>
  <path d="m35.062 84.901-7.4861 7.4776 7.8001 7.8078 3.7929-0.32312 2.7264-8.1212-6.8333-6.8411z" fill-opacity=".17167"/>
  <path d="m58.309 75.878 8.3191 15.016-2.293 2.2897-12.409-11.694 6.383-5.6116z" fill="#c4c3cd"/>
  <path d="m55.984 77.437 8.3515 15.747-12.409-11.694 4.0577-4.0532z" fill="#81809e"/>
  <path d="m79.485 80.554s-4.7052 1.9873-9.4629 5.8354c0 0-5.9457 5.766-9.5681 9.5577-3.6217 3.7917-4.9206 5.6096-4.9206 5.6096l2.9229 2.9255s1.8193-1.2963 5.6148-4.9141c3.7955-3.6184 9.5681-9.5577 9.5681-9.5577 3.8533-4.7539 5.8458-9.4565 5.8458-9.4565z" fill="#d2d1e5"/>
  <path d="m79.485 80.554-22.662 22.525 1.6337 1.4034s1.8193-1.2963 5.6148-4.9141c3.7955-3.6184 9.5681-9.5577 9.5681-9.5577 3.8533-4.7539 5.8458-9.4565 5.8458-9.4565z" fill="#9f9cb6"/>
  <path d="m56.149 100.39 3.4725 3.4757-1.2788 1.7726-3.9675-3.972 1.7739-1.2762z" fill="#dedde8"/>
  <path d="m58.893 103.14 0.72925 0.72926-1.2788 1.7726-0.79286-0.79415 1.3424-1.7077z" fill="#9795a8"/>
  <path d="m54.375 101.67 0.70986 0.71045 1.8387-1.2113-0.77471-0.77533-1.7739 1.2762z" fill="#c9c8d2"/>
  <path d="m79.485 80.554s-1.201 2.7257-1.7058 3.5931l-1.8894-1.8919c0.85582-0.53268 3.5951-1.7012 3.5951-1.7012z" fill="#5c55c3" stroke="#000" stroke-linecap="round" stroke-opacity=".13305" stroke-width=".070907"/>
  <path d="m44.062 61.616-15.006-8.3353-2.2929 2.2903 11.681 12.422 5.6181-6.3772z" fill="#c4c3cd"/>
  <path d="m42.502 63.939-15.739-8.3684 11.681 12.422 4.0577-4.0538z" fill="#81809e"/>
  <path d="m39.41 40.435s-1.9925 4.7032-5.8458 9.4565c0 0-5.7725 5.9399-9.5681 9.5577-3.7955 3.6184-5.6145 4.9148-5.6145 4.9148l-2.9228-2.9262s1.2986-1.8173 4.9208-5.609c3.6223-3.7917 9.5681-9.5577 9.5681-9.5577 4.7571-3.8488 9.4623-5.8361 9.4623-5.8361z" fill="#9f9cb6"/>
  <path d="m39.41 40.435-22.549 22.638-1.4018-1.635s1.2986-1.8173 4.9208-5.609c3.6223-3.7917 9.5681-9.5577 9.5681-9.5577 4.7571-3.8488 9.4623-5.8361 9.4623-5.8361z" fill="#d2d1e5"/>
  <path d="m19.547 63.749-3.4721-3.4757-1.7739 1.2762 3.9677 3.972 1.2782-1.7726z" fill="#dedde8"/>
  <path d="m16.803 61.003-0.72874-0.72926-1.7739 1.2762 0.79308 0.79414 1.7095-1.3411z" fill="#c9c8d2"/>
  <path d="m18.268 65.522-0.7095-0.71045 1.2134-1.8374 0.77434 0.77533-1.2782 1.7726z" fill="#9795a8"/>
  <path d="m39.41 40.435s-2.7269 1.1984-3.595 1.7018l1.89 1.8919c0.53331-0.85579 1.705-3.5938 1.705-3.5938z" fill="#5c55c3" stroke="#000" stroke-linecap="round" stroke-opacity=".13305" stroke-width=".070907"/>
 </g>
 <rect y="-6.7224e-14" width="1e3" height="1e3" fill-opacity="0"/>
</svg>
